<?xml version="1.0" standalone="no"?>
<!DOCTYPE svg PUBLIC "-//W3C//DTD SVG 20010904//EN"
 "http://www.w3.org/TR/2001/REC-SVG-20010904/DTD/svg10.dtd">
<svg version="1.0" xmlns="http://www.w3.org/2000/svg"
 width="260.000000pt" height="260.000000pt" viewBox="0 0 260.000000 260.000000"
 preserveAspectRatio="xMidYMid meet">
<metadata>
Created by potrace 1.11, written by Peter Selinger 2001-2013
</metadata>
<g transform="translate(0.000000,260.000000) scale(0.100000,-0.100000)"
fill="#000000" stroke="none">
<path d="M216 2579 c-59 -22 -110 -61 -153 -118 -66 -86 -64 -39 -61 -1182 l3
-1034 22 -47 c30 -66 96 -133 162 -165 l56 -28 1055 0 1055 0 48 23 c93 45
161 125 186 222 9 33 11 310 9 1075 l-3 1030 -28 56 c-32 66 -99 132 -165 162
l-47 22 -1045 2 c-998 1 -1047 0 -1094 -18z m330 -237 c-8 -13 488 -10 496 2
5 8 8 8 8 1 0 -15 150 -15 150 -1 0 8 2 8 8 0 10 -14 784 -14 794 0 5 8 8 7 8
-1 0 -7 12 -10 30 -8 17 2 30 0 30 -6 0 -6 7 -6 19 1 14 7 22 7 26 0 5 -8 11
-7 21 1 12 10 13 9 8 -5 -7 -19 7 -21 25 -3 10 10 11 9 6 -5 -5 -12 -1 -20 11
-24 11 -4 27 -14 36 -21 9 -8 21 -12 27 -8 7 4 8 0 4 -11 -4 -12 -3 -15 5 -10
7 4 12 2 12 -4 0 -6 5 -8 13 -4 7 5 6 0 -3 -11 -14 -17 -13 -18 6 -13 13 3 21
0 21 -8 0 -7 -4 -11 -9 -8 -4 3 -8 0 -8 -5 0 -6 5 -11 10 -11 6 0 10 -7 10
-15 0 -8 6 -15 13 -15 8 0 7 -4 -3 -10 -8 -5 -10 -10 -4 -10 13 0 16 -34 17
-202 1 -70 5 -125 9 -122 4 3 8 0 8 -5 0 -6 -4 -11 -9 -11 -4 0 -8 -69 -7
-154 0 -85 4 -152 8 -150 5 3 8 0 8 -5 0 -6 -4 -11 -9 -11 -4 0 -8 -69 -7
-154 0 -85 4 -152 8 -150 5 3 8 0 8 -5 0 -6 -4 -11 -9 -11 -4 0 -8 -69 -7
-154 0 -85 4 -152 8 -150 5 3 8 0 8 -5 0 -6 -4 -11 -9 -11 -10 0 -9 -250 2
-267 4 -6 2 -17 -5 -25 -17 -18 -21 -58 -7 -75 10 -11 8 -12 -7 -7 -10 4 -16
4 -12 -1 4 -4 0 -14 -8 -22 -12 -12 -12 -18 -3 -30 10 -11 10 -14 -2 -11 -8 2
-13 -3 -11 -12 2 -8 1 -12 -3 -8 -9 8 -45 -23 -45 -39 0 -6 -5 -15 -12 -19 -7
-4 -8 -3 -4 4 12 20 -10 13 -29 -8 -10 -11 -20 -18 -23 -15 -3 2 -11 -3 -19
-13 -8 -9 -12 -12 -9 -5 4 7 -1 9 -15 6 -16 -4 -17 -8 -7 -14 9 -6 9 -9 1 -9
-6 0 -15 5 -18 11 -5 6 -12 4 -22 -8 -8 -10 -12 -13 -9 -6 4 7 -6 11 -29 11
-19 0 -35 -4 -35 -9 0 -5 -5 -9 -11 -9 -5 0 -8 4 -5 8 2 4 -20 8 -50 9 -30 0
-54 -3 -54 -8 0 -5 -5 -9 -11 -9 -5 0 -8 4 -5 8 3 5 -10 9 -29 10 -19 1 -35
-3 -35 -8 0 -6 -5 -10 -11 -10 -5 0 -8 4 -5 8 2 4 -38 8 -90 9 -52 0 -94 -3
-94 -8 0 -5 -5 -9 -11 -9 -5 0 -8 3 -5 8 2 4 -38 8 -90 8 -52 1 -94 -3 -94 -7
0 -5 -5 -9 -11 -9 -5 0 -8 4 -5 8 3 5 -10 9 -29 10 -19 1 -35 -3 -35 -8 0 -6
-5 -10 -11 -10 -5 0 -8 4 -5 9 3 4 -19 8 -49 9 -30 0 -55 -4 -55 -9 0 -5 -5
-9 -11 -9 -5 0 -8 4 -5 9 7 11 -55 9 -73 -3 -9 -6 -12 -5 -8 1 5 7 -6 11 -28
11 -19 0 -35 -4 -35 -9 0 -5 -5 -9 -11 -9 -5 0 -8 4 -5 8 2 4 -20 8 -50 9 -30
0 -54 -3 -54 -8 0 -5 -5 -9 -11 -9 -5 0 -8 4 -5 8 3 5 -10 9 -29 10 -19 1 -35
-3 -35 -8 0 -6 -5 -10 -11 -10 -5 0 -8 4 -5 8 2 4 -38 8 -90 9 -52 0 -94 -3
-94 -8 0 -5 -5 -9 -11 -9 -5 0 -8 4 -5 8 3 5 -16 9 -42 9 -48 -1 -118 9 -132
18 -5 3 -11 -1 -13 -7 -4 -8 -6 -7 -6 4 -1 11 -8 16 -21 13 -11 -2 -19 -1 -17
3 2 4 -17 25 -42 47 -24 22 -41 34 -36 26 5 -10 4 -12 -4 -7 -6 4 -9 12 -5 17
7 12 -15 41 -26 34 -5 -3 -6 4 -3 15 3 11 0 20 -6 20 -6 0 -11 5 -11 11 0 5 6
7 13 3 7 -5 6 -1 -3 10 -16 21 -23 49 -9 40 5 -3 9 0 9 5 0 6 -4 11 -9 11 -6
0 -8 9 -6 20 2 11 -2 20 -8 20 -8 0 -9 3 -1 8 14 9 14 172 0 172 -8 0 -7 3 0
8 14 9 13 145 -1 154 -7 5 -7 8 0 8 15 0 15 782 1 792 -8 6 -8 8 0 8 14 0 14
150 -1 150 -6 0 -6 3 1 8 13 9 13 132 -1 132 -5 0 -4 4 3 9 7 4 13 28 14 52 1
24 6 50 11 57 5 6 6 12 2 12 -4 0 -1 8 6 17 12 14 12 15 1 9 -11 -7 -12 -4 -3
13 7 11 17 21 23 21 6 0 8 3 5 7 -4 3 2 13 13 20 11 8 18 19 15 24 -4 5 1 9
10 9 10 0 13 5 9 12 -5 8 -2 9 10 5 14 -6 17 -3 12 8 -3 10 -2 13 5 10 5 -4
17 -1 26 7 9 7 18 12 20 11 10 -8 23 -1 17 9 -5 8 -2 9 11 5 9 -4 25 -2 33 5
12 10 14 10 8 1 -10 -18 9 -16 24 2 13 16 25 21 16 7z m-216 -102 c0 -5 -5
-10 -11 -10 -5 0 -7 5 -4 10 3 6 8 10 11 10 2 0 4 -4 4 -10z m36 -1912 c19
-23 19 -23 -2 -5 -11 9 -24 14 -29 10 -4 -5 -5 -2 -1 5 9 16 10 16 32 -10z
m1835 -41 c-10 -9 -11 -8 -5 6 3 10 9 15 12 12 3 -3 0 -11 -7 -18z m-1691 -27
c0 -5 -5 -10 -11 -10 -5 0 -7 5 -4 10 3 6 8 10 11 10 2 0 4 -4 4 -10z"/>
<path d="M523 1793 c3 -159 11 -313 16 -343 6 -30 13 -71 16 -90 25 -156 108
-340 205 -455 42 -50 144 -145 173 -163 15 -9 27 -20 27 -24 0 -4 6 -8 14 -8
8 0 16 -4 18 -9 4 -12 184 -124 253 -158 l55 -27 70 34 c38 19 70 38 70 43 0
4 5 7 12 7 11 0 165 99 198 127 8 7 33 27 54 45 67 56 145 141 184 198 20 30
35 57 33 59 -1 2 2 7 7 10 22 14 92 192 108 276 2 11 8 43 13 70 20 103 23
137 28 413 l5 282 -44 0 c-70 0 -167 -39 -213 -85 -49 -48 -99 -149 -111 -222
-3 -20 -8 -45 -10 -57 -8 -35 -13 -140 -18 -341 -3 -105 -9 -202 -15 -217 -5
-14 -8 -28 -5 -31 3 -3 -7 -14 -22 -26 -32 -25 -71 -21 -116 10 -14 11 -29 19
-32 19 -5 0 -42 33 -129 113 -68 63 -66 63 -143 -10 -82 -78 -151 -127 -199
-143 -30 -10 -40 -9 -60 4 -14 9 -27 29 -31 44 -3 15 -8 34 -11 42 -2 8 -6
101 -9 205 -5 243 -10 314 -30 395 -17 66 -50 146 -69 166 -5 6 -19 23 -30 37
-11 15 -25 27 -32 27 -7 0 -13 3 -13 8 0 21 -116 62 -178 62 l-45 0 6 -287z"/>
</g>
</svg>
